<svg width="38" height="38" viewBox="0 0 38 38" fill="none" xmlns="http://www.w3.org/2000/svg">
<path d="M35.6268 19.3692C35.6268 18.0023 35.5136 17.0048 35.2686 15.9704H19.3411V22.14H28.6902C28.5018 23.6733 27.4839 25.9823 25.222 27.5339L25.1903 27.7404L30.2263 31.5637L30.5752 31.5979C33.7795 28.6977 35.6268 24.4306 35.6268 19.3692Z" fill="#4285F4"/>
<path d="M19.3398 35.625C23.9201 35.625 27.7653 34.1471 30.5739 31.598L25.2207 27.534C23.7882 28.513 21.8655 29.1965 19.3398 29.1965C14.8537 29.1965 11.0462 26.2964 9.68898 22.2879L9.49003 22.3045L4.25354 26.2761L4.18506 26.4626C6.9747 31.8935 12.7049 35.625 19.3398 35.625Z" fill="#34A853"/>
<path d="M9.69012 22.288C9.33199 21.2536 9.12473 20.1452 9.12473 19C9.12473 17.8546 9.33199 16.7463 9.67128 15.7119L9.66179 15.4916L4.35966 11.4562L4.18619 11.5371C3.03644 13.7907 2.37671 16.3215 2.37671 19C2.37671 21.6784 3.03644 24.209 4.18619 26.4627L9.69012 22.288Z" fill="#FBBC05"/>
<path d="M19.3399 8.80329C22.5254 8.80329 24.6741 10.1518 25.8994 11.2786L30.6871 6.6975C27.7467 4.01903 23.9202 2.375 19.3399 2.375C12.7049 2.375 6.97472 6.10636 4.18506 11.5371L9.67017 15.7119C11.0463 11.7035 14.8538 8.80329 19.3399 8.80329Z" fill="#EB4335"/>
</svg>
